<svg xmlns="http://www.w3.org/2000/svg" width="40" height="40" fill="none" viewBox="0 0 40 40"><g clip-path="url(#clip0_1_3020)"><path fill="#FF8F27" d="M25.3333 2.17332V1.99999C25.3333 1.26357 24.7364 0.666656 24 0.666656H20H16C15.2636 0.666656 14.6667 1.26357 14.6667 1.99999V2.17332C7.51191 4.48524 2.66457 11.1477 2.66666 18.6667H37.3333C37.3354 11.1477 32.4881 4.48524 25.3333 2.17332Z"/><path fill="#FF8F27" d="M38 18.6667H1.99999C1.26357 18.6667 0.666656 19.2636 0.666656 20V21.3333C0.666656 22.0697 1.26357 22.6667 1.99999 22.6667H38C38.7364 22.6667 39.3333 22.0697 39.3333 21.3333V20C39.3333 19.2636 38.7364 18.6667 38 18.6667Z"/><path fill="#E6E7E8" d="M36 30C36 28.5272 34.8061 27.3333 33.3333 27.3333H6.66667C5.19392 27.3333 4 28.5272 4 30V35.3333C4 37.5425 5.79083 39.3333 8 39.3333H12C14.819 39.3353 17.4306 37.8524 18.8733 35.4307C19.2532 34.8084 20.0655 34.6119 20.6877 34.9917C20.8668 35.1011 21.0173 35.2516 21.1267 35.4307C22.5694 37.8524 25.181 39.3353 28 39.3333H32C34.2092 39.3333 36 37.5425 36 35.3333V30Z"/><path fill="#A7A9AC" d="M36 32H39.3333V35.3333H36V32Z"/><path fill="#A7A9AC" d="M36 30H39.3333V32H36V30Z"/><path fill="#A7A9AC" d="M0.666656 32.6667V36H3.99999V35.3333V32.6667H0.666656Z"/><path fill="#A7A9AC" d="M0.666656 30.6667H3.99999V32.6667H0.666656V30.6667Z"/><path fill="#231F20" d="M38 18H37.9733C37.7205 10.609 32.9521 4.133 25.9693 1.69733C25.8203 0.723833 24.9848 0.00375 24 0H16C15.0152 0.00375 14.1797 0.723833 14.0307 1.69733C7.04792 4.133 2.2795 10.609 2.02667 18H2C0.895417 18 0 18.8954 0 20V21.3333C0 22.4379 0.895417 23.3333 2 23.3333H38C39.1046 23.3333 40 22.4379 40 21.3333V20C40 18.8954 39.1046 18 38 18ZM14 3.12733V14.6667C14 15.0348 14.2985 15.3333 14.6667 15.3333C15.0348 15.3333 15.3333 15.0348 15.3333 14.6667V2C15.3333 1.63183 15.6318 1.33333 16 1.33333H19.3333V16C19.3333 16.3682 19.6318 16.6667 20 16.6667C20.3682 16.6667 20.6667 16.3682 20.6667 16V1.33333H24C24.3682 1.33333 24.6667 1.63183 24.6667 2V14.6667C24.6667 15.0348 24.9652 15.3333 25.3333 15.3333C25.7015 15.3333 26 15.0348 26 14.6667V3.12733C32.206 5.5055 36.3933 11.3585 36.64 18H3.36C3.60675 11.3585 7.794 5.5055 14 3.12733ZM38.6667 21.3333C38.6667 21.7015 38.3682 22 38 22H2C1.63183 22 1.33333 21.7015 1.33333 21.3333V20C1.33333 19.6318 1.63183 19.3333 2 19.3333H38C38.3682 19.3333 38.6667 19.6318 38.6667 20V21.3333Z"/><path fill="#231F20" d="M16.6667 29.3333H8C6.89542 29.3333 6 30.2287 6 31.3333V34C6 34.3682 6.2985 34.6667 6.66667 34.6667C7.03483 34.6667 7.33333 34.3682 7.33333 34V31.3333C7.33333 30.9652 7.63183 30.6667 8 30.6667H16.6667C17.0348 30.6667 17.3333 30.3682 17.3333 30C17.3333 29.6318 17.0348 29.3333 16.6667 29.3333Z"/><path fill="#231F20" d="M39.3333 29.3333H36.6C36.2811 27.7824 34.9168 26.6687 33.3333 26.6667H6.66667C4.82667 26.6688 3.3355 28.16 3.33333 30H0.666667C0.2985 30 0 30.2985 0 30.6667V36C0 36.3682 0.2985 36.6667 0.666667 36.6667H3.53333C4.12408 38.6413 5.93892 39.9956 8 40H12C15.0507 39.9913 17.8746 38.3879 19.4453 35.7727C19.6367 35.4663 20.0402 35.3732 20.3465 35.5645C20.4308 35.6172 20.502 35.6883 20.5547 35.7727C22.1254 38.3879 24.9493 39.9913 28 40H32C34.3178 39.9973 36.2822 38.2939 36.6133 36H39.3333C39.7015 36 40 35.7015 40 35.3333V30C40 29.6318 39.7015 29.3333 39.3333 29.3333ZM38.6667 31.3333H36.6667V30.6667H38.6667V31.3333ZM3.33333 31.3333V32H1.33333V31.3333H3.33333ZM1.33333 35.3333V33.3333H3.33333V35.3333H1.33333ZM32 38.6667H28C25.4181 38.6591 23.0281 37.302 21.6987 35.0887C21.1309 34.1498 19.9095 33.8489 18.9707 34.4167C18.6956 34.583 18.465 34.8136 18.2987 35.0887C16.9698 37.3012 14.5809 38.6582 12 38.6667H8C6.16 38.6645 4.66883 37.1733 4.66667 35.3333V30C4.66667 28.8954 5.56208 28 6.66667 28H33.3333C34.4379 28 35.3333 28.8954 35.3333 30V35.3333C35.3312 37.1733 33.84 38.6645 32 38.6667ZM36.6667 34.6667V32.6667H38.6667V34.6667H36.6667Z"/><path fill="#231F20" d="M20.6667 29.3333H19.3333C18.9652 29.3333 18.6667 29.6318 18.6667 30C18.6667 30.3682 18.9652 30.6667 19.3333 30.6667H20.6667C21.0348 30.6667 21.3333 30.3682 21.3333 30C21.3333 29.6318 21.0348 29.3333 20.6667 29.3333Z"/></g><defs><clipPath id="clip0_1_3020"><rect width="40" height="40" fill="#fff"/></clipPath></defs></svg>