<svg width="234" height="40" viewBox="0 0 234 40" fill="none" xmlns="http://www.w3.org/2000/svg">
<g clip-path="url(#clip0_69_3085)">
<path d="M25.3332 2.17341V2.00008C25.3332 1.26366 24.7363 0.666748 23.9998 0.666748H19.9998H15.9998C15.2634 0.666748 14.6665 1.26366 14.6665 2.00008V2.17341C7.51175 4.48533 2.66442 11.1477 2.6665 18.6667H37.3332C37.3353 11.1477 32.4879 4.48533 25.3332 2.17341Z" fill="#FF8F27"/>
<path d="M37.9998 18.6667H1.99984C1.26342 18.6667 0.666504 19.2637 0.666504 20.0001V21.3334C0.666504 22.0698 1.26342 22.6667 1.99984 22.6667H37.9998C38.7363 22.6667 39.3332 22.0698 39.3332 21.3334V20.0001C39.3332 19.2637 38.7363 18.6667 37.9998 18.6667Z" fill="#FF8F27"/>
<path d="M36 29.9999C36 28.5272 34.8061 27.3333 33.3333 27.3333H6.66667C5.19392 27.3333 4 28.5272 4 29.9999V35.3333C4 37.5424 5.79083 39.3333 8 39.3333H12C14.819 39.3353 17.4306 37.8523 18.8733 35.4306C19.2532 34.8083 20.0655 34.6118 20.6877 34.9917C20.8668 35.101 21.0173 35.2515 21.1267 35.4306C22.5694 37.8523 25.181 39.3353 28 39.3333H32C34.2092 39.3333 36 37.5424 36 35.3333V29.9999Z" fill="#E6E7E8"/>
<path d="M36 32H39.3333V35.3333H36V32Z" fill="#A7A9AC"/>
<path d="M36 30H39.3333V32H36V30Z" fill="#A7A9AC"/>
<path d="M0.666504 32.6667V36.0001H3.99984V35.3334V32.6667H0.666504Z" fill="#A7A9AC"/>
<path d="M0.666504 30.6667H3.99984V32.6667H0.666504V30.6667Z" fill="#A7A9AC"/>
<path d="M38 18H37.9733C37.7205 10.609 32.9521 4.133 25.9693 1.69733C25.8203 0.723833 24.9848 0.00375 24 0H16C15.0152 0.00375 14.1797 0.723833 14.0307 1.69733C7.04792 4.133 2.2795 10.609 2.02667 18H2C0.895417 18 0 18.8954 0 20V21.3333C0 22.4379 0.895417 23.3333 2 23.3333H38C39.1046 23.3333 40 22.4379 40 21.3333V20C40 18.8954 39.1046 18 38 18ZM14 3.12733V14.6667C14 15.0348 14.2985 15.3333 14.6667 15.3333C15.0348 15.3333 15.3333 15.0348 15.3333 14.6667V2C15.3333 1.63183 15.6318 1.33333 16 1.33333H19.3333V16C19.3333 16.3682 19.6318 16.6667 20 16.6667C20.3682 16.6667 20.6667 16.3682 20.6667 16V1.33333H24C24.3682 1.33333 24.6667 1.63183 24.6667 2V14.6667C24.6667 15.0348 24.9652 15.3333 25.3333 15.3333C25.7015 15.3333 26 15.0348 26 14.6667V3.12733C32.206 5.5055 36.3932 11.3585 36.64 18H3.36C3.60675 11.3585 7.794 5.5055 14 3.12733ZM38.6667 21.3333C38.6667 21.7015 38.3682 22 38 22H2C1.63183 22 1.33333 21.7015 1.33333 21.3333V20C1.33333 19.6318 1.63183 19.3333 2 19.3333H38C38.3682 19.3333 38.6667 19.6318 38.6667 20V21.3333Z" fill="#231F20"/>
<path d="M16.6667 29.3333H8C6.89542 29.3333 6 30.2287 6 31.3333V33.9999C6 34.3681 6.2985 34.6666 6.66667 34.6666C7.03483 34.6666 7.33333 34.3681 7.33333 33.9999V31.3333C7.33333 30.9651 7.63183 30.6666 8 30.6666H16.6667C17.0348 30.6666 17.3333 30.3681 17.3333 29.9999C17.3333 29.6318 17.0348 29.3333 16.6667 29.3333Z" fill="#231F20"/>
<path d="M39.3333 29.3334H36.6C36.2811 27.7825 34.9168 26.6687 33.3333 26.6667H6.66667C4.82667 26.6689 3.3355 28.1601 3.33333 30.0001H0.666667C0.2985 30.0001 0 30.2986 0 30.6667V36.0001C0 36.3682 0.2985 36.6667 0.666667 36.6667H3.53333C4.12408 38.6414 5.93892 39.9957 8 40.0001H12C15.0507 39.9914 17.8746 38.388 19.4453 35.7727C19.6367 35.4664 20.0402 35.3732 20.3465 35.5646C20.4308 35.6172 20.502 35.6884 20.5547 35.7727C22.1254 38.388 24.9493 39.9914 28 40.0001H32C34.3178 39.9973 36.2822 38.294 36.6133 36.0001H39.3333C39.7015 36.0001 40 35.7016 40 35.3334V30.0001C40 29.6319 39.7015 29.3334 39.3333 29.3334ZM38.6667 31.3334H36.6667V30.6667H38.6667V31.3334ZM3.33333 31.3334V32.0001H1.33333V31.3334H3.33333ZM1.33333 35.3334V33.3334H3.33333V35.3334H1.33333ZM32 38.6667H28C25.4181 38.6592 23.0281 37.3021 21.6987 35.0887C21.1309 34.1498 19.9095 33.849 18.9707 34.4167C18.6956 34.5831 18.465 34.8137 18.2987 35.0887C16.9698 37.3012 14.5809 38.6582 12 38.6667H8C6.16 38.6646 4.66883 37.1734 4.66667 35.3334V30.0001C4.66667 28.8955 5.56208 28.0001 6.66667 28.0001H33.3333C34.4379 28.0001 35.3333 28.8955 35.3333 30.0001V35.3334C35.3312 37.1734 33.84 38.6646 32 38.6667ZM36.6667 34.6667V32.6667H38.6667V34.6667H36.6667Z" fill="#231F20"/>
<path d="M20.6665 29.3333H19.3332C18.965 29.3333 18.6665 29.6318 18.6665 29.9999C18.6665 30.3681 18.965 30.6666 19.3332 30.6666H20.6665C21.0347 30.6666 21.3332 30.3681 21.3332 29.9999C21.3332 29.6318 21.0347 29.3333 20.6665 29.3333Z" fill="#231F20"/>
</g>
<path d="M72.9375 22.0156H67.0938L67.0625 18.7969H71.9688C72.8333 18.7969 73.5417 18.6875 74.0938 18.4688C74.6458 18.2396 75.0573 17.9115 75.3281 17.4844C75.6094 17.0469 75.75 16.5156 75.75 15.8906C75.75 15.1823 75.6146 14.6094 75.3438 14.1719C75.0833 13.7344 74.6719 13.4167 74.1094 13.2188C73.5573 13.0208 72.8438 12.9219 71.9688 12.9219H68.7188V32H64.0312V9.25H71.9688C73.2917 9.25 74.474 9.375 75.5156 9.625C76.5677 9.875 77.4583 10.2552 78.1875 10.7656C78.9167 11.276 79.474 11.9219 79.8594 12.7031C80.2448 13.474 80.4375 14.3906 80.4375 15.4531C80.4375 16.3906 80.224 17.2552 79.7969 18.0469C79.3802 18.8385 78.7188 19.4844 77.8125 19.9844C76.9167 20.4844 75.7448 20.7604 74.2969 20.8125L72.9375 22.0156ZM72.7344 32H65.8125L67.6406 28.3438H72.7344C73.5573 28.3438 74.2292 28.2135 74.75 27.9531C75.2708 27.6823 75.6562 27.3177 75.9062 26.8594C76.1562 26.401 76.2812 25.875 76.2812 25.2812C76.2812 24.6146 76.1667 24.0365 75.9375 23.5469C75.7188 23.0573 75.3646 22.6823 74.875 22.4219C74.3854 22.151 73.7396 22.0156 72.9375 22.0156H68.4219L68.4531 18.7969H74.0781L75.1562 20.0625C76.5417 20.0417 77.6562 20.2865 78.5 20.7969C79.3542 21.2969 79.974 21.9479 80.3594 22.75C80.7552 23.5521 80.9531 24.4115 80.9531 25.3281C80.9531 26.7865 80.6354 28.0156 80 29.0156C79.3646 30.0052 78.4323 30.75 77.2031 31.25C75.9844 31.75 74.4948 32 72.7344 32ZM94.1875 27.9531V15.0938H98.6875V32H94.4531L94.1875 27.9531ZM94.6875 24.4844L96.0156 24.4531C96.0156 25.5781 95.8854 26.625 95.625 27.5938C95.3646 28.5521 94.974 29.3854 94.4531 30.0938C93.9323 30.7917 93.276 31.3385 92.4844 31.7344C91.6927 32.1198 90.7604 32.3125 89.6875 32.3125C88.8646 32.3125 88.1042 32.1979 87.4062 31.9688C86.7188 31.7292 86.125 31.3594 85.625 30.8594C85.1354 30.349 84.75 29.6979 84.4688 28.9062C84.1979 28.1042 84.0625 27.1406 84.0625 26.0156V15.0938H88.5625V26.0469C88.5625 26.5469 88.6198 26.9688 88.7344 27.3125C88.8594 27.6562 89.0312 27.9375 89.25 28.1562C89.4688 28.375 89.724 28.5312 90.0156 28.625C90.3177 28.7188 90.651 28.7656 91.0156 28.7656C91.9427 28.7656 92.6719 28.5781 93.2031 28.2031C93.7448 27.8281 94.125 27.3177 94.3438 26.6719C94.5729 26.0156 94.6875 25.2865 94.6875 24.4844ZM106.875 15.0938V32H102.359V15.0938H106.875ZM102.078 10.6875C102.078 10.0312 102.307 9.48958 102.766 9.0625C103.224 8.63542 103.839 8.42188 104.609 8.42188C105.37 8.42188 105.979 8.63542 106.438 9.0625C106.906 9.48958 107.141 10.0312 107.141 10.6875C107.141 11.3438 106.906 11.8854 106.438 12.3125C105.979 12.7396 105.37 12.9531 104.609 12.9531C103.839 12.9531 103.224 12.7396 102.766 12.3125C102.307 11.8854 102.078 11.3438 102.078 10.6875ZM115.344 8V32H110.828V8H115.344ZM129.047 28.3125V8H133.578V32H129.5L129.047 28.3125ZM118.359 23.75V23.4219C118.359 22.1302 118.505 20.9583 118.797 19.9062C119.089 18.8438 119.516 17.9323 120.078 17.1719C120.641 16.4115 121.333 15.8229 122.156 15.4062C122.979 14.9896 123.917 14.7812 124.969 14.7812C125.958 14.7812 126.823 14.9896 127.562 15.4062C128.312 15.8229 128.948 16.4167 129.469 17.1875C130 17.9479 130.427 18.849 130.75 19.8906C131.073 20.9219 131.307 22.0521 131.453 23.2812V24C131.307 25.1771 131.073 26.2708 130.75 27.2812C130.427 28.2917 130 29.1771 129.469 29.9375C128.948 30.6875 128.312 31.2708 127.562 31.6875C126.812 32.1042 125.938 32.3125 124.938 32.3125C123.885 32.3125 122.948 32.099 122.125 31.6719C121.312 31.2448 120.625 30.6458 120.062 29.875C119.51 29.1042 119.089 28.1979 118.797 27.1562C118.505 26.1146 118.359 24.9792 118.359 23.75ZM122.859 23.4219V23.75C122.859 24.4479 122.911 25.099 123.016 25.7031C123.13 26.3073 123.312 26.8438 123.562 27.3125C123.823 27.7708 124.156 28.1302 124.562 28.3906C124.979 28.6406 125.484 28.7656 126.078 28.7656C126.849 28.7656 127.484 28.5938 127.984 28.25C128.484 27.8958 128.865 27.4115 129.125 26.7969C129.396 26.1823 129.552 25.474 129.594 24.6719V22.625C129.562 21.9688 129.469 21.3802 129.312 20.8594C129.167 20.3281 128.948 19.875 128.656 19.5C128.375 19.125 128.021 18.8333 127.594 18.625C127.177 18.4167 126.682 18.3125 126.109 18.3125C125.526 18.3125 125.026 18.4479 124.609 18.7188C124.193 18.9792 123.854 19.3385 123.594 19.7969C123.344 20.2552 123.156 20.7969 123.031 21.4219C122.917 22.0365 122.859 22.7031 122.859 23.4219ZM146.234 27.3281C146.234 27.0052 146.141 26.7135 145.953 26.4531C145.766 26.1927 145.417 25.9531 144.906 25.7344C144.406 25.5052 143.682 25.2969 142.734 25.1094C141.88 24.9219 141.083 24.6875 140.344 24.4062C139.615 24.1146 138.979 23.7656 138.438 23.3594C137.906 22.9531 137.49 22.474 137.188 21.9219C136.885 21.3594 136.734 20.7188 136.734 20C136.734 19.2917 136.885 18.625 137.188 18C137.5 17.375 137.943 16.8229 138.516 16.3438C139.099 15.8542 139.807 15.474 140.641 15.2031C141.484 14.9219 142.432 14.7812 143.484 14.7812C144.953 14.7812 146.214 15.0156 147.266 15.4844C148.328 15.9531 149.141 16.599 149.703 17.4219C150.276 18.2344 150.562 19.1615 150.562 20.2031H146.062C146.062 19.7656 145.969 19.375 145.781 19.0312C145.604 18.6771 145.323 18.401 144.938 18.2031C144.562 17.9948 144.073 17.8906 143.469 17.8906C142.969 17.8906 142.536 17.9792 142.172 18.1562C141.807 18.3229 141.526 18.5521 141.328 18.8438C141.141 19.125 141.047 19.4375 141.047 19.7812C141.047 20.0417 141.099 20.276 141.203 20.4844C141.318 20.6823 141.5 20.8646 141.75 21.0312C142 21.1979 142.323 21.3542 142.719 21.5C143.125 21.6354 143.625 21.7604 144.219 21.875C145.438 22.125 146.526 22.4531 147.484 22.8594C148.443 23.2552 149.203 23.7969 149.766 24.4844C150.328 25.1615 150.609 26.0521 150.609 27.1562C150.609 27.9062 150.443 28.5938 150.109 29.2188C149.776 29.8438 149.297 30.3906 148.672 30.8594C148.047 31.3177 147.297 31.6771 146.422 31.9375C145.557 32.1875 144.583 32.3125 143.5 32.3125C141.927 32.3125 140.594 32.0312 139.5 31.4688C138.417 30.9062 137.594 30.1927 137.031 29.3281C136.479 28.4531 136.203 27.5573 136.203 26.6406H140.469C140.49 27.2552 140.646 27.75 140.938 28.125C141.24 28.5 141.62 28.7708 142.078 28.9375C142.547 29.1042 143.052 29.1875 143.594 29.1875C144.177 29.1875 144.661 29.1094 145.047 28.9531C145.432 28.7865 145.724 28.5677 145.922 28.2969C146.13 28.0156 146.234 27.6927 146.234 27.3281ZM158.031 18.3438V38.5H153.531V15.0938H157.703L158.031 18.3438ZM168.734 23.3594V23.6875C168.734 24.9167 168.589 26.0573 168.297 27.1094C168.016 28.1615 167.599 29.0781 167.047 29.8594C166.495 30.6302 165.807 31.2344 164.984 31.6719C164.172 32.099 163.234 32.3125 162.172 32.3125C161.141 32.3125 160.245 32.1042 159.484 31.6875C158.724 31.2708 158.083 30.6875 157.562 29.9375C157.052 29.1771 156.641 28.2969 156.328 27.2969C156.016 26.2969 155.776 25.224 155.609 24.0781V23.2188C155.776 21.9896 156.016 20.8646 156.328 19.8438C156.641 18.8125 157.052 17.9219 157.562 17.1719C158.083 16.4115 158.719 15.8229 159.469 15.4062C160.229 14.9896 161.12 14.7812 162.141 14.7812C163.214 14.7812 164.156 14.9844 164.969 15.3906C165.792 15.7969 166.479 16.3802 167.031 17.1406C167.594 17.901 168.016 18.8073 168.297 19.8594C168.589 20.9115 168.734 22.0781 168.734 23.3594ZM164.219 23.6875V23.3594C164.219 22.6406 164.156 21.9792 164.031 21.375C163.917 20.7604 163.729 20.224 163.469 19.7656C163.219 19.3073 162.885 18.9531 162.469 18.7031C162.062 18.4427 161.568 18.3125 160.984 18.3125C160.37 18.3125 159.844 18.4115 159.406 18.6094C158.979 18.8073 158.63 19.0938 158.359 19.4688C158.089 19.8438 157.885 20.2917 157.75 20.8125C157.615 21.3333 157.531 21.9219 157.5 22.5781V24.75C157.552 25.5208 157.698 26.2135 157.938 26.8281C158.177 27.4323 158.547 27.9115 159.047 28.2656C159.547 28.6198 160.203 28.7969 161.016 28.7969C161.609 28.7969 162.109 28.6667 162.516 28.4062C162.922 28.1354 163.25 27.7656 163.5 27.2969C163.76 26.8281 163.943 26.2865 164.047 25.6719C164.161 25.0573 164.219 24.3958 164.219 23.6875ZM175.922 8V32H171.422V8H175.922ZM175.281 22.9531H174.047C174.057 21.776 174.214 20.6927 174.516 19.7031C174.818 18.7031 175.25 17.8385 175.812 17.1094C176.375 16.3698 177.047 15.7969 177.828 15.3906C178.62 14.9844 179.495 14.7812 180.453 14.7812C181.286 14.7812 182.042 14.901 182.719 15.1406C183.406 15.3698 183.995 15.7448 184.484 16.2656C184.984 16.776 185.37 17.4479 185.641 18.2812C185.911 19.1146 186.047 20.125 186.047 21.3125V32H181.516V21.2812C181.516 20.5312 181.406 19.9427 181.188 19.5156C180.979 19.0781 180.672 18.7708 180.266 18.5938C179.87 18.4062 179.38 18.3125 178.797 18.3125C178.151 18.3125 177.599 18.4323 177.141 18.6719C176.693 18.9115 176.333 19.2448 176.062 19.6719C175.792 20.0885 175.594 20.5781 175.469 21.1406C175.344 21.7031 175.281 22.3073 175.281 22.9531ZM197.25 32.3125C195.938 32.3125 194.76 32.1042 193.719 31.6875C192.677 31.2604 191.792 30.6719 191.062 29.9219C190.344 29.1719 189.792 28.3021 189.406 27.3125C189.021 26.3125 188.828 25.25 188.828 24.125V23.5C188.828 22.2188 189.01 21.0469 189.375 19.9844C189.74 18.9219 190.26 18 190.938 17.2188C191.625 16.4375 192.458 15.8385 193.438 15.4219C194.417 14.9948 195.521 14.7812 196.75 14.7812C197.948 14.7812 199.01 14.9792 199.938 15.375C200.865 15.7708 201.641 16.3333 202.266 17.0625C202.901 17.7917 203.38 18.6667 203.703 19.6875C204.026 20.6979 204.188 21.8229 204.188 23.0625V24.9375H190.75V21.9375H199.766V21.5938C199.766 20.9688 199.651 20.4115 199.422 19.9219C199.203 19.4219 198.87 19.026 198.422 18.7344C197.974 18.4427 197.401 18.2969 196.703 18.2969C196.109 18.2969 195.599 18.4271 195.172 18.6875C194.745 18.9479 194.396 19.3125 194.125 19.7812C193.865 20.25 193.667 20.8021 193.531 21.4375C193.406 22.0625 193.344 22.75 193.344 23.5V24.125C193.344 24.8021 193.438 25.4271 193.625 26C193.823 26.5729 194.099 27.0677 194.453 27.4844C194.818 27.901 195.255 28.224 195.766 28.4531C196.286 28.6823 196.875 28.7969 197.531 28.7969C198.344 28.7969 199.099 28.6406 199.797 28.3281C200.505 28.0052 201.115 27.5208 201.625 26.875L203.812 29.25C203.458 29.7604 202.974 30.25 202.359 30.7188C201.755 31.1875 201.026 31.5729 200.172 31.875C199.318 32.1667 198.344 32.3125 197.25 32.3125ZM211.25 18.7812V32H206.75V15.0938H210.984L211.25 18.7812ZM216.344 14.9844L216.266 19.1562C216.047 19.125 215.781 19.099 215.469 19.0781C215.167 19.0469 214.891 19.0312 214.641 19.0312C214.005 19.0312 213.453 19.1146 212.984 19.2812C212.526 19.4375 212.141 19.6719 211.828 19.9844C211.526 20.2969 211.297 20.6771 211.141 21.125C210.995 21.5729 210.911 22.0833 210.891 22.6562L209.984 22.375C209.984 21.2812 210.094 20.276 210.312 19.3594C210.531 18.4323 210.849 17.625 211.266 16.9375C211.693 16.25 212.214 15.7188 212.828 15.3438C213.443 14.9688 214.146 14.7812 214.938 14.7812C215.188 14.7812 215.443 14.8021 215.703 14.8438C215.964 14.875 216.177 14.9219 216.344 14.9844ZM225.938 32.3125C224.625 32.3125 223.448 32.1042 222.406 31.6875C221.365 31.2604 220.479 30.6719 219.75 29.9219C219.031 29.1719 218.479 28.3021 218.094 27.3125C217.708 26.3125 217.516 25.25 217.516 24.125V23.5C217.516 22.2188 217.698 21.0469 218.062 19.9844C218.427 18.9219 218.948 18 219.625 17.2188C220.312 16.4375 221.146 15.8385 222.125 15.4219C223.104 14.9948 224.208 14.7812 225.438 14.7812C226.635 14.7812 227.698 14.9792 228.625 15.375C229.552 15.7708 230.328 16.3333 230.953 17.0625C231.589 17.7917 232.068 18.6667 232.391 19.6875C232.714 20.6979 232.875 21.8229 232.875 23.0625V24.9375H219.438V21.9375H228.453V21.5938C228.453 20.9688 228.339 20.4115 228.109 19.9219C227.891 19.4219 227.557 19.026 227.109 18.7344C226.661 18.4427 226.089 18.2969 225.391 18.2969C224.797 18.2969 224.286 18.4271 223.859 18.6875C223.432 18.9479 223.083 19.3125 222.812 19.7812C222.552 20.25 222.354 20.8021 222.219 21.4375C222.094 22.0625 222.031 22.75 222.031 23.5V24.125C222.031 24.8021 222.125 25.4271 222.312 26C222.51 26.5729 222.786 27.0677 223.141 27.4844C223.505 27.901 223.943 28.224 224.453 28.4531C224.974 28.6823 225.562 28.7969 226.219 28.7969C227.031 28.7969 227.786 28.6406 228.484 28.3281C229.193 28.0052 229.802 27.5208 230.312 26.875L232.5 29.25C232.146 29.7604 231.661 30.25 231.047 30.7188C230.443 31.1875 229.714 31.5729 228.859 31.875C228.005 32.1667 227.031 32.3125 225.938 32.3125Z" fill="#1F212D"/>
<defs>
<clipPath id="clip0_69_3085">
<rect width="40" height="40" fill="white"/>
</clipPath>
</defs>
</svg>
